HIERARCHY
ROOT Hips
{
  OFFSET 2.26061 22.2878 23.7974
  CHANNELS 6 Xposition Yposition Zposition Zrotation Xrotation Yrotation
  JOINT LeftUpLeg
  {
    OFFSET 8.64259 1.95398 -2.38835
    CHANNELS 3 Zrotation Xrotation Yrotation
    JOINT LeftLeg
    {
      OFFSET 43.7702 0 0
      CHANNELS 3 Zrotation Xrotation Yrotation
      JOINT LeftFoot
      {
        OFFSET 40.6238 0 0
        CHANNELS 3 Zrotation Xrotation Yrotation
        JOINT LeftToeBase
        {
          OFFSET 12.7242 0 0
          CHANNELS 3 Zrotation Xrotation Yrotation
          End Site
          {
            OFFSET 0 0 0
          }
        }
      }
    }
  }
  JOINT RightUpLeg
  {
    OFFSET -8.2249 1.95398 -2.59336
    CHANNELS 3 Zrotation Xrotation Yrotation
    JOINT RightLeg
    {
      OFFSET 43.5653 0 0
      CHANNELS 3 Zrotation Xrotation Yrotation
      JOINT RightFoot
      {
        OFFSET 40.6238 0 0
        CHANNELS 3 Zrotation Xrotation Yrotation
        JOINT RightToeBase
        {
          OFFSET 12.7242 0 0
          CHANNELS 3 Zrotation Xrotation Yrotation
          End Site
          {
            OFFSET 0 0 0
          }
        }
      }
    }
  }
  JOINT Spine
  {
    OFFSET 0.165834 0.87714 6.61349
    CHANNELS 3 Zrotation Xrotation Yrotation
    JOINT Spine1
    {
      OFFSET 7.38963 1.71661e-005 0
      CHANNELS 3 Zrotation Xrotation Yrotation
      JOINT Spine2
      {
        OFFSET 11.9445 1.14441e-005 0
        CHANNELS 3 Zrotation Xrotation Yrotation
        JOINT Spine3
        {
          OFFSET 14.7254 4.19617e-005 0
          CHANNELS 3 Zrotation Xrotation Yrotation
          JOINT Spine4
          {
            OFFSET 10.9679 0 0
            CHANNELS 3 Zrotation Xrotation Yrotation
            JOINT RightShoulder
            {
              OFFSET 2.46616 -1.6653 3.69651
              CHANNELS 3 Zrotation Xrotation Yrotation
              JOINT RightArm
              {
                OFFSET 13.0012 0 0
                CHANNELS 3 Zrotation Xrotation Yrotation
                JOINT RightForeArm
                {
                  OFFSET 28.7848 1.52588e-005 0
                  CHANNELS 3 Zrotation Xrotation Yrotation
                  JOINT RightHand
                  {
                    OFFSET 26.5688 1.52588e-005 0
                    CHANNELS 3 Zrotation Xrotation Yrotation
                    End Site
                    {
                      OFFSET 0 0 0
                    }
                  }
                }
              }
            }
            JOINT LeftShoulder
            {
              OFFSET 2.38034 -1.29275 -3.7523
              CHANNELS 3 Zrotation Xrotation Yrotation
              JOINT LeftArm
              {
                OFFSET 16.3182 6.10351e-005 0
                CHANNELS 3 Zrotation Xrotation Yrotation
                JOINT LeftForeArm
                {
                  OFFSET 27.0901 0 0
                  CHANNELS 3 Zrotation Xrotation Yrotation
                  JOINT LeftHand
                  {
                    OFFSET 24.5451 1.52588e-005 0
                    CHANNELS 3 Zrotation Xrotation Yrotation
                    End Site
                    {
                      OFFSET 0 0 0
                    }
                  }
                }
              }
            }
            JOINT Neck
            {
              OFFSET 5.0226 -0.0266342 0
              CHANNELS 3 Zrotation Xrotation Yrotation
              JOINT Head
              {
                OFFSET 6.69363 2.86102e-005 0
                CHANNELS 3 Zrotation Xrotation Yrotation
                End Site
                {
                  OFFSET 0 0 0
                }
              }
            }
          }
        }
      }
    }
  }
}
MOTION
Frames:	18
Frame Time:	0.0416667
-165.538 96.6264 -174.845 87.3857 -33.8435 89.4544 -171.625 9.2693 90.3129 -15.053 9.12873 -1.06643 65.3082 4.01102 3.61648 29.073 0.15234 0.810049 175.055 6.8347 92.5174 -11.4729 -3.4863 -1.21579 64.76 -2.55355 -1.40717 29.1005 0.269844 -4.12082 -0.111114 6.17791 -90.1747 14.5175 -0.306125 -0.307385 2.8466 -0.319338 -0.293624 -19.6884 -0.199623 -0.385181 0.324222 -0.199589 -0.385179 96.3919 -53.6037 -90.5704 18.726 -19.4209 5.12302 8.70113 -6.57581 -86.8415 -1.11509 0.114732 -5.20632 -103.166 -54.5802 61.2687 -17.2416 10.4522 12.7905 -19.9914 -5.77708 -87.5434 17.0415 -0.075031 -4.27924 5.7882 -1.7163 3.43838 -4.74 -2.23461 -3.04393 
-165.388 96.5879 -175.008 86.853 -35.276 89.5955 -171.428 9.72511 90.6159 -15.3904 7.13737 -1.09394 65.9954 3.96338 2.61924 28.9028 -0.0224732 1.19036 175.607 6.32018 93.0663 -9.54841 -4.05486 -1.45114 64.5415 -2.81764 -1.57975 28.3329 0.240204 -3.81272 0.070944 6.13074 -90.2209 14.6123 0.0312916 -0.448327 2.94126 0.0115666 -0.449281 -19.5933 0.164599 -0.418195 0.419293 0.164585 -0.418196 96.2569 -53.7751 -90.752 18.5377 -20.6459 4.8933 12.745 -4.7615 -86.3804 -7.04828 0.142563 -6.71597 -103.482 -54.6282 60.8543 -17.1364 10.6569 12.9458 -21.1849 -5.98739 -87.3669 14.8523 -0.362281 -6.14752 6.2026 -0.991797 1.81243 -6.88111 -1.25273 -1.07834 
-165.005 96.6207 -174.996 87.1655 -37.0052 90.8758 -170.804 9.60719 91.7133 -16.2048 6.06365 -1.12817 66.8365 3.97054 2.45465 28.8706 -0.0649086 1.35215 176.324 4.78329 93.9983 -7.32452 -5.29587 -1.57778 63.5953 -2.82615 -1.62807 27.638 0.33549 -5.29041 0.284138 6.14781 -90.3382 14.5791 0.395547 -0.735881 2.90796 0.362787 -0.752581 -19.6265 0.598428 -0.582984 0.386131 0.598423 -0.582991 96.3736 -53.8223 -90.5743 18.7669 -24.8993 4.51303 24.3771 -0.354264 -88.6583 -14.3749 0.179784 -6.41674 -103.383 -54.5217 60.95 -17.5324 10.9988 12.928 -22.8738 -6.00733 -87.6023 16.5772 -0.36291 -6.00444 5.72426 -0.756268 1.52219 -7.42019 -0.970179 -0.799636 
-164.435 96.6498 -174.961 87.7623 -39.3198 92.8427 -169.973 9.33446 93.2825 -17.2495 4.89498 -1.13963 67.9946 4.07355 2.80173 28.7673 -0.0955578 0.834148 177.164 4.20688 95.4188 -7.48493 -6.56168 -1.60461 63.4894 -2.76562 -1.59906 28.2697 0.32812 -5.13716 0.57645 6.20373 -90.5284 14.4703 0.881198 -1.18604 2.79905 0.828156 -1.22368 -19.7359 1.19689 -0.866394 0.276756 1.19688 -0.866397 96.5899 -53.7431 -90.2619 18.7574 -24.5926 4.48764 23.8726 -0.324964 -88.6535 -13.7383 0.177662 -6.41914 -103.402 -54.6701 60.9797 -17.4776 11.1383 12.7044 -23.5339 -5.96261 -87.7244 16.9566 -0.374928 -6.04254 5.70674 -0.714825 1.68208 -7.823 -0.95171 -0.840086 
-163.762 96.6943 -174.938 88.7333 -41.6928 95.5488 -168.996 9.00932 95.3428 -18.4111 3.99319 -1.13489 69.0108 3.91185 2.60984 29.2505 0.256106 1.21439 178.202 3.25597 97.1718 -7.52104 -8.10609 -1.62431 64.118 -2.96677 -1.70796 27.4728 0.332153 -5.24306 0.871057 6.26091 -90.7494 14.3608 1.35678 -1.69461 2.68938 1.28093 -1.75267 -19.8463 1.80334 -1.20852 0.166304 1.80334 -1.20853 96.4226 -53.3876 -90.5473 19.3925 -24.2571 4.8293 23.0648 -0.674772 -88.6919 -13.5167 0.161713 -6.24812 -103.34 -54.5566 61.021 -17.4755 10.6303 13.2827 -21.6464 -5.76429 -88.0251 15.1021 -0.289251 -5.66278 5.67233 -0.733975 1.6153 -7.99606 -0.960809 -0.761989 
-163.061 96.712 -174.876 90.0185 -43.8314 98.4233 -168.136 8.5351 97.256 -19.7322 2.45065 -1.01942 70.563 3.93695 2.22221 28.9804 0.0264842 1.32789 179.038 2.29116 98.7852 -7.55822 -8.93352 -1.41293 63.5252 -2.72879 -1.58551 27.8982 0.291678 -4.65975 1.13824 6.33797 -90.9686 14.2127 1.77998 -2.18944 2.54104 1.68191 -2.26563 -19.9954 2.35561 -1.55334 0.0172196 2.35562 -1.55334 96.4802 -53.441 -90.4561 19.2512 -24.348 4.67569 23.0811 -0.603456 -88.2531 -13.7293 0.235011 -7.08152 -103.486 -54.5619 60.8234 -17.3811 10.8891 13.0478 -22.2936 -5.85379 -87.8703 16.3003 -0.249474 -5.33633 5.49348 -0.707513 1.75941 -8.17366 -0.949771 -0.884524 
-162.377 96.7026 -174.799 91.3186 -45.5373 101.243 -167.347 8.10416 99.0919 -20.811 1.6892 -0.951294 71.7497 3.97058 2.32346 28.9378 0.0104 1.14493 179.981 1.29254 100.354 -7.583 -10.0573 -1.38909 64.0836 -2.91635 -1.68704 27.6866 0.302428 -4.82359 1.35287 6.40192 -91.1714 14.0912 2.10775 -2.63768 2.41907 1.98966 -2.72783 -20.1174 2.80287 -1.88241 -0.104772 2.80288 -1.88241 96.407 -53.8937 -90.5172 18.6918 -24.4 4.64471 22.907 -0.592116 -88.2863 -13.5388 0.217231 -6.87948 -103.089 -54.4126 61.3106 -17.5211 11.0633 13.0088 -22.0726 -5.97004 -87.7489 15.9059 -0.202246 -5.07195 5.12756 -0.692054 1.65368 -8.52202 -0.913323 -0.79717 
-161.773 96.6733 -174.72 92.7435 -46.6311 104.031 -166.638 7.73221 100.841 -21.9037 1.24469 -0.866572 72.7811 4.05755 2.42938 29.1499 0.221111 0.735824 -179.203 0.28252 101.786 -7.56888 -10.4969 -1.26595 64.0383 -2.88466 -1.66972 27.9902 0.291939 -4.63986 1.51544 6.46154 -91.3683 13.9772 2.33545 -3.059 2.30449 2.19861 -3.15874 -20.2304 3.14658 -2.21597 -0.217773 3.14659 -2.21597 96.5209 -54.0691 -90.3307 18.5378 -24.5577 4.71345 23.3034 -0.512452 -88.5991 -13.7532 0.166822 -6.31356 -103.468 -54.4686 60.8131 -17.2573 10.7802 12.9924 -21.1544 -6.00192 -87.4545 15.0477 -0.239236 -5.33731 4.11167 -0.702494 1.44675 -8.68402 -0.89933 -0.282728 
-161.304 96.6977 -174.64 93.8997 -47.3073 106.164 -166.158 7.33142 102.105 -22.5879 0.952876 -0.731203 73.449 4.05022 2.20706 29.2933 0.285582 1.26764 -178.637 -0.454924 102.827 -7.5962 -10.8733 -1.12835 63.9536 -2.85024 -1.65714 28.2587 0.308685 -4.85521 1.63476 6.53192 -91.5261 13.8405 2.49732 -3.39158 2.16728 2.34574 -3.49809 -20.3657 3.40088 -2.48466 -0.353093 3.40086 -2.48467 96.6758 -54.0267 -90.1062 18.5726 -24.1525 4.66095 23.2729 -0.362359 -88.5343 -13.0194 0.20536 -6.70914 -103.264 -54.3033 61.0289 -17.5266 11.238 12.4412 -22.3773 -6.04078 -87.5507 16.5017 -0.185047 -4.93853 2.90297 -0.557988 1.59049 -8.47143 -0.763914 -0.228995 
-161.1 96.6558 -174.612 94.4881 -47.7714 107.173 -165.762 7.15467 102.759 -22.885 1.01676 -0.862498 73.845 4.23222 2.40068 29.1234 0.190584 0.83111 -178.073 -0.775811 103.41 -7.72344 -11.2917 -1.38456 64.6943 -3.17221 -1.82952 28.0335 0.319057 -5.02523 1.69007 6.57408 -91.5906 13.7582 2.57714 -3.52806 2.08475 2.41946 -3.63792 -20.4477 3.51796 -2.59091 -0.435028 3.51795 -2.59091 96.5641 -53.9404 -90.2801 18.5838 -24.1712 4.49594 23.1233 -0.431474 -88.5949 -13.1436 0.169969 -6.30391 -103.206 -54.3931 61.1418 -17.1584 11.1883 12.1072 -20.8253 -6.03981 -87.4532 15.1362 -0.178146 -4.93954 1.45941 -0.417032 1.51756 -10.7109 -0.598666 -0.0966065 
-161.268 96.6479 -174.64 94.4468 -47.9063 106.816 -165.771 7.11692 102.467 -22.7887 0.853694 -0.916105 73.8872 4.45281 2.32641 28.853 -0.0274419 0.841815 -177.893 -0.436277 103.325 -8.01507 -11.1424 -1.65867 64.2946 -3.13194 -1.82825 28.4888 0.315132 -4.93466 1.6575 6.65304 -91.5325 13.5988 2.54366 -3.40062 1.9256 2.39163 -3.50915 -20.6082 3.44776 -2.47933 -0.595529 3.44778 -2.47933 96.1907 -53.8631 -90.8407 17.9202 -24.2466 3.47767 23.2738 -0.194972 -88.2117 -13.5072 0.168206 -6.28152 -103.056 -54.3849 61.3454 -16.1783 11.2968 11.1532 -21.4559 -6.20522 -87.0458 14.934 -0.236517 -5.31989 -1.52144 -0.15039 1.83134 -12.8242 -0.289093 -0.542829 
-161.941 96.599 -174.776 93.5535 -47.7038 104.623 -166.536 7.59337 100.84 -22.6911 0.502915 -0.819056 73.0991 4.21203 2.14376 29.2384 0.226518 1.42343 -178.246 0.559622 102.247 -8.32946 -10.6725 -2.01809 63.5283 -2.99926 -1.78288 28.6977 0.301642 -4.69859 1.54898 6.79956 -91.3139 13.3013 2.43936 -2.93787 1.62913 2.30779 -3.04231 -20.9093 3.20933 -2.06906 -0.896677 3.20934 -2.06906 95.6231 -54.1929 -91.6416 16.5125 -26.7605 1.11955 30.2973 1.95715 -91.0812 -16.1792 -0.162745 -3.3249 -102.963 -54.2747 61.4302 -14.6336 11.278 9.21006 -21.6422 -6.45407 -86.2544 15.0907 -0.261995 -5.48123 -5.55139 0.113876 2.00101 -13.9604 0.0393198 -0.633187 
-163.193 96.5408 -174.983 91.7879 -46.7019 100.262 -167.54 8.13246 97.9644 -21.3256 0.536926 -1.10285 71.4437 4.07176 2.34327 29.2898 0.280359 1.29298 -178.902 2.22859 100.076 -8.69795 -10.0644 -2.77779 63.1849 -3.15877 -1.90154 28.485 0.307492 -4.81189 1.33931 7.0169 -90.9117 12.8592 2.22298 -2.08973 1.18834 2.12889 -2.18553 -21.3556 2.74815 -1.32489 -1.34299 2.74818 -1.32489 95.2079 -54.9844 -92.1546 14.2602 -24.8619 -1.61892 29.0181 2.93308 -89.2219 -12.4881 -0.354242 1.08483 -103.62 -54.2147 60.5066 -12.4045 10.6183 6.67757 -21.5502 -7.04388 -84.7051 13.0386 -0.320942 -6.0727 -9.9238 0.038605 1.39102 -13.7613 -0.0127231 0.167159 
-164.976 96.3763 -175.367 88.6557 -44.1054 94.1403 -169.108 10.1789 94.2484 -20.1077 1.40821 -1.48434 69.4719 4.0275 2.18132 28.938 -0.0512579 1.75989 -179.904 5.94679 97.4224 -10.3526 -7.82668 -3.23907 62.3602 -3.23817 -1.96095 29.4906 0.282034 -4.24179 0.94046 7.25458 -90.4378 12.3746 1.661 -1.06204 0.704239 1.61266 -1.13413 -21.8385 1.90336 -0.513624 -1.82586 1.90337 -0.513622 95.1314 -54.2458 -92.3589 13.2002 -20.3445 -5.2526 25.3315 0.965815 -85.917 -4.53381 0.182139 -1.15445 -104.478 -53.95 59.2261 -9.81668 10.4709 3.58526 -21.9048 -7.61885 -83.0528 13.2706 -0.450252 -6.99426 -13.0303 -0.306362 1.76544 -13.16 -0.281731 -0.366987 
-167.131 96.035 -176.058 86.6423 -38.4297 87.8105 -171.473 12.107 89.306 -18.3739 3.931 -1.73689 66.3417 4.28747 2.91344 29.0468 0.117162 0.953869 177.863 13.3927 92.8802 -20.1422 -4.15418 -3.5859 66.0927 -3.66351 -2.02282 30.2239 0.28379 -4.08992 0.208463 7.59507 -89.885 11.6816 0.468443 0.180771 0.0106819 0.475948 0.159976 -22.5241 0.392467 0.3132 -2.51143 0.392465 0.313202 94.3863 -54.3066 -93.4465 11.1649 -16.7577 -8.43134 19.0337 -2.14358 -83.0115 -0.224952 0.220239 -6.03309 -105.622 -53.0939 57.3089 -7.59621 10.0089 0.370155 -24.4005 -8.82521 -80.8195 14.7382 -0.498692 -7.08003 -16.7085 -1.94946 1.70182 -10.4942 -1.85826 -1.23634 
-168.538 95.4972 -176.713 83.2578 -35.6648 83.7512 -172.593 16.6612 86.7981 -19.5805 4.9613 -2.06813 65.0817 4.75439 3.64806 29.5511 0.547734 0.676845 177.397 19.6091 91.0585 -24.7425 -2.22437 -3.69845 67.2298 -3.59638 -1.93872 31.0199 0.269313 -3.49917 -0.050285 7.87107 -89.7394 11.1311 0.0209631 0.517436 -0.540001 0.0437319 0.516009 -23.0744 -0.135504 0.499823 -3.06174 -0.135518 0.499818 93.5487 -53.7436 -94.7607 9.46206 -13.4183 -11.0775 15.6674 -4.29648 -82.092 2.76601 0.199666 -5.83233 -106.882 -52.3803 55.2729 -4.49719 8.76405 -4.45899 -22.7874 -10.0467 -76.4815 11.7868 -0.527953 -7.88685 -17.2507 -2.15742 1.89577 -8.68002 -2.08199 -0.772815 
-169.622 94.8322 -177.379 80.2254 -34.0263 82.159 -172.396 22.1027 86.46 -23.1273 6.1049 -2.48292 65.4677 5.87957 4.62458 30.1893 1.04789 0.800193 177.432 24.2647 91.0998 -27.2153 -0.834877 -3.31842 68.2651 -3.75879 -2.00062 31.7041 0.288157 -3.65595 -0.0610754 8.23109 -89.936 10.4117 -0.0923034 0.135184 -1.25922 -0.0862612 0.139117 -23.7944 -0.128665 0.101199 -3.78173 -0.128652 0.101204 91.8843 -51.9551 -97.5507 8.39377 -11.8897 -13.5083 20.7873 3.49168 -79.3889 3.27926 0.137999 -8.25737 -107.917 -51.9235 53.6485 -1.68571 7.38124 -10.997 -21.3947 -11.8629 -70.1102 8.5083 -0.553911 -9.23261 -17.1798 -2.62194 3.38208 -5.88876 -2.50825 -1.32885 
-170.768 93.8048 -177.973 77.2134 -33.0934 80.8934 -171.4 28.3217 86.4801 -28.3059 6.92381 -3.244 66.4867 6.82028 4.46037 30.8265 1.51585 1.37307 177.998 29.7962 91.542 -31.295 0.609275 -3.09403 69.4302 -4.26625 -2.24035 31.3932 0.265693 -3.23494 0.0593501 8.5925 -90.1453 9.68853 0.052584 -0.291188 -1.98246 0.0397466 -0.293235 -24.5174 0.137681 -0.261922 -4.5047 0.137687 -0.261924 90.2393 -51.3632 -100.149 6.93585 -8.7598 -15.4555 20.4291 1.1128 -75.3269 -5.80187 0.369095 -13.6954 -108.648 -51.3456 52.3789 0.876931 6.65326 -17.349 -20.4805 -12.7224 -65.9572 8.87709 -0.457399 -8.07422 -16.9044 -3.81696 3.82196 -2.72037 -3.75311 -2.5657 
